HIERARCHY
ROOT Hip
{
	OFFSET 0.000000 0.000000 0.000000 
	CHANNELS 6 Xposition Yposition Zposition Xrotation Yrotation Zrotation
	JOINT LowerSpine
	{
		OFFSET 0.000000 8.345300 -5.129200 
		CHANNELS 3 Xrotation Yrotation Zrotation
		JOINT MiddleSpine
		{
			OFFSET 10.856900 0.000000 0.000000 
			CHANNELS 3 Xrotation Yrotation Zrotation
			JOINT Chest
			{
				OFFSET 15.298400 0.000000 0.000000 
				CHANNELS 3 Xrotation Yrotation Zrotation
				JOINT Neck
				{
					OFFSET 25.661800 -0.598600 0.000000 
					CHANNELS 3 Xrotation Yrotation Zrotation
					JOINT Head
					{
						OFFSET 8.882900 0.000000 0.000000 
						CHANNELS 3 Xrotation Yrotation Zrotation
						End Site
						{
							OFFSET 19.739901 0.000000 0.000000 
						}
					}
				}
				JOINT RClavicle
				{
					OFFSET 23.687799 0.000000 3.158400 
					CHANNELS 3 Xrotation Yrotation Zrotation
					JOINT RShoulder
					{
						OFFSET -15.594500 -3.948000 0.987000 
						CHANNELS 3 Xrotation Yrotation Zrotation
						JOINT RForearm
						{
							OFFSET -31.337000 0.000000 0.197400 
							CHANNELS 3 Xrotation Yrotation Zrotation
							JOINT RHand
							{
								OFFSET -26.402100 0.000000 0.000000 
								CHANNELS 3 Xrotation Yrotation Zrotation
								End Site
								{
									OFFSET -15.791900 -0.987000 0.000000 
								}
							}
						}
					}
				}
				JOINT LClavicle
				{
					OFFSET 23.687799 0.000000 -3.158400 
					CHANNELS 3 Xrotation Yrotation Zrotation
					JOINT LShoulder
					{
						OFFSET -15.594500 -3.948000 -0.987000 
						CHANNELS 3 Xrotation Yrotation Zrotation
						JOINT LForearm
						{
							OFFSET -31.337000 0.000000 -0.197400 
							CHANNELS 3 Xrotation Yrotation Zrotation
							JOINT LHand
							{
								OFFSET -26.402100 0.000000 0.000000 
								CHANNELS 3 Xrotation Yrotation Zrotation
								End Site
								{
									OFFSET -15.791900 -0.987000 0.000000 
								}
							}
						}
					}
				}
			}
		}
	}
	JOINT RThigh
	{
		OFFSET -8.882900 0.448100 0.000000 
		CHANNELS 3 Xrotation Yrotation Zrotation
		JOINT RShin
		{
			OFFSET 43.131599 0.000000 -0.493500 
			CHANNELS 3 Xrotation Yrotation Zrotation
			JOINT RFoot
			{
				OFFSET 0.000000 -44.725601 -0.404700 
				CHANNELS 3 Xrotation Yrotation Zrotation
				JOINT RToe
				{
					OFFSET 0.000000 -3.933200 12.195300 
					CHANNELS 3 Xrotation Yrotation Zrotation
					End Site
					{
						OFFSET 6.772500 0.000000 0.000000 
					}
				}
			}
		}
	}
	JOINT LThigh
	{
		OFFSET 8.882900 0.448100 0.000000 
		CHANNELS 3 Xrotation Yrotation Zrotation
		JOINT LShin
		{
			OFFSET 43.131599 0.000000 0.493500 
			CHANNELS 3 Xrotation Yrotation Zrotation
			JOINT LFoot
			{
				OFFSET 0.000000 -44.725601 0.404700 
				CHANNELS 3 Xrotation Yrotation Zrotation
				JOINT LToe
				{
					OFFSET 0.000000 -3.933200 -12.195300 
					CHANNELS 3 Xrotation Yrotation Zrotation
					End Site
					{
						OFFSET 6.772500 0.000000 0.000000 
					}
				}
			}
		}
	}
}
MOTION
Frames: 12
Frame Time: 0.016949
-1.663221 91.071930 -1.551997 2.817881 3.215370 -3.533289 -89.999992 -90.000000 0.000000 0.023324 -0.904485 -0.443717 0.049643 -3.016078 -1.478752 0.000000 0.000000 0.000000 0.000000 0.000000 0.000000 89.996033 -0.289671 -86.108124 1.026080 10.198640 65.688828 156.862000 75.207947 -156.417801 0.000000 0.000000 0.000000 -89.995193 0.226904 -86.951393 -22.751390 -14.306380 72.542442 -88.449226 -84.136047 -88.711800 0.000000 0.000000 0.000000 -68.271523 86.630028 -30.043249 89.833252 18.258841 90.007973 -13.274690 -0.902286 -0.474146 179.746704 90.000000 0.000000 -171.909698 81.072548 57.512810 -89.606537 -38.504971 90.096497 4.723818 -3.884250 1.440611 192.281403 -90.000000 0.000000 
-1.514064 90.833984 -1.596091 2.855885 3.595115 -3.586682 -89.999992 -90.000000 0.000000 0.095847 -0.933645 -0.448669 0.293827 -3.117963 -1.493018 0.000000 0.000000 0.000000 0.000000 0.000000 0.000000 89.995377 -0.245979 -86.695007 -0.658051 10.769470 65.834999 156.406601 75.469254 -155.977295 0.000000 0.000000 0.000000 -89.995117 0.209629 -87.183380 -23.999109 -12.874420 73.247803 -91.515984 -84.134743 -91.762497 0.000000 0.000000 0.000000 -67.785507 86.709267 -32.324570 89.799782 21.679251 90.015907 -13.881010 -1.253487 -0.707448 179.393402 90.000000 0.000000 -174.862000 78.329292 59.124851 -89.579651 -40.425758 90.111633 4.515651 -4.147231 1.463292 192.689697 -90.000000 0.000000 
-1.321106 90.605736 -1.715485 2.979395 3.924932 -3.616229 -89.999992 -90.000000 0.000000 0.151261 -0.962981 -0.461575 0.482021 -3.221558 -1.535791 0.000000 0.000000 0.000000 0.000000 0.000000 0.000000 89.995178 -0.195439 -87.373848 -2.275186 11.412080 66.118683 155.567093 75.925789 -155.163895 0.000000 0.000000 0.000000 -89.995132 0.192837 -87.408951 -25.125731 -11.466410 73.660980 -93.503769 -84.124977 -93.739883 0.000000 0.000000 0.000000 -66.527000 86.838142 -35.057468 89.774078 24.216490 90.023338 -14.544230 -1.454165 -0.849059 179.185593 90.000000 0.000000 -175.250305 76.592979 57.897751 -89.552277 -42.279381 90.127808 3.793312 -3.190374 1.054290 193.379196 -90.000000 0.000000 
-1.217748 90.452988 -1.850879 3.112398 4.129500 -3.777879 -89.999992 -90.000000 0.000000 0.194193 -0.989911 -0.478953 0.623226 -3.311280 -1.589024 0.000000 0.000000 0.000000 0.000000 0.000000 0.000000 89.995567 -0.144990 -88.051453 -3.985422 12.251380 66.784470 153.671402 76.850540 -153.321304 0.000000 0.000000 0.000000 -89.995216 0.175015 -87.648331 -26.176470 -10.032130 73.828644 -97.110153 -84.089043 -97.327217 0.000000 0.000000 0.000000 -66.521782 86.782883 -35.884041 89.761482 25.428230 90.027390 -14.928510 -1.511017 -0.882025 179.114502 90.000000 0.000000 -172.424698 75.645683 53.380581 -89.530693 -43.673092 90.141121 2.135748 -1.681915 0.527079 195.107803 -90.000000 0.000000 
-1.168591 90.355637 -1.964073 3.210827 4.228375 -4.010794 -89.999992 -90.000000 0.000000 0.234575 -1.009480 -0.493019 0.748945 -3.370109 -1.626178 0.000000 0.000000 0.000000 0.000000 0.000000 0.000000 89.996407 -0.100595 -88.647873 -5.742096 13.121160 67.698036 150.264008 78.214729 -149.994003 0.000000 0.000000 0.000000 -89.995407 0.154423 -87.924927 -27.156111 -8.656289 73.977989 -103.523399 -83.965111 -103.705704 0.000000 0.000000 0.000000 -67.117859 86.638733 -35.763691 89.754921 26.051340 90.029587 -15.026360 -1.436121 -0.825027 178.915497 90.000000 0.000000 -167.698395 74.986603 47.374260 -89.518982 -44.403221 90.148514 0.423539 -0.250950 0.085970 196.873306 -90.000000 0.000000 
-1.072733 90.258499 -2.029667 3.248849 4.424812 -4.204328 -89.999992 -90.000000 0.000000 0.279895 -1.013671 -0.493980 0.893311 -3.381339 -1.623217 0.000000 0.000000 0.000000 0.000000 0.000000 0.000000 89.997398 -0.065855 -89.114647 -6.969776 13.576730 68.403122 146.425598 79.412041 -146.228302 0.000000 0.000000 0.000000 -89.995758 0.129804 -88.255577 -27.914150 -7.756863 73.971191 -110.200699 -83.746010 -110.344704 0.000000 0.000000 0.000000 -66.839340 86.571548 -36.287891 89.750862 26.434080 90.030998 -15.204960 -1.346038 -0.783936 178.853394 90.000000 0.000000 -161.263901 74.982933 40.503750 -89.513962 -44.711552 90.151733 -0.457918 0.670970 -0.209973 197.798294 -90.000000 0.000000 
-0.951975 90.166153 -2.065761 3.302595 4.996061 -4.429989 -89.999992 -90.000000 0.000000 0.333281 -0.997784 -0.477512 1.072471 -3.331773 -1.567193 0.000000 0.000000 0.000000 0.000000 0.000000 0.000000 89.998230 -0.042006 -89.435211 -7.365805 13.291970 68.816383 143.755402 80.088577 -143.600601 0.000000 0.000000 0.000000 -89.996338 0.101599 -88.634506 -28.475920 -7.588310 73.391228 -117.317200 -83.392593 -117.416603 0.000000 0.000000 0.000000 -66.641586 86.500603 -36.533661 89.749962 26.518551 90.031311 -15.565490 -1.446388 -0.879856 179.169800 90.000000 0.000000 -151.203400 75.818237 30.580620 -89.512619 -44.793049 90.152580 -0.859405 1.034562 -0.346363 198.356796 -90.000000 0.000000 
-0.887318 90.125313 -2.088056 3.423691 5.567388 -4.702420 -89.999992 -90.000000 0.000000 0.392447 -0.961910 -0.445706 1.275738 -3.215903 -1.460076 0.000000 0.000000 0.000000 0.000000 0.000000 0.000000 89.998756 -0.028748 -89.613358 -7.351888 12.887650 69.262573 141.250793 80.632584 -141.131302 0.000000 0.000000 0.000000 -89.997131 0.072625 -89.023804 -29.027281 -7.732662 72.566193 -124.560097 -82.871246 -124.607697 0.000000 0.000000 0.000000 -67.264427 86.354103 -35.922180 89.751129 26.409260 90.030907 -15.801720 -1.530765 -0.949937 179.519806 90.000000 0.000000 -138.631699 76.295174 18.376080 -89.517479 -44.495392 90.149467 -1.277348 0.922206 -0.317155 198.846207 -90.000000 0.000000 
-0.825460 90.122360 -2.089650 3.518111 5.601296 -4.865194 -89.999992 -90.000000 0.000000 0.449222 -0.908022 -0.403285 1.471897 -3.038027 -1.317099 0.000000 0.000000 0.000000 0.000000 0.000000 0.000000 89.998901 -0.025135 -89.661926 -7.449600 13.191070 69.755089 136.475204 81.480347 -136.413498 0.000000 0.000000 0.000000 -89.997993 0.047369 -89.363213 -29.607660 -7.665292 72.207336 -130.058807 -82.330727 -130.060898 0.000000 0.000000 0.000000 -67.360710 86.262451 -35.830551 89.753067 26.227539 90.030228 -15.858430 -1.452103 -0.901553 179.686295 90.000000 0.000000 -127.274696 75.971527 7.714557 -89.531219 -43.638630 90.140793 -1.657642 0.769091 -0.267078 199.058807 -90.000000 0.000000 
-0.611603 90.112518 -2.078744 3.529336 5.214583 -4.840309 -89.999992 -90.000000 0.000000 0.493398 -0.839708 -0.356481 1.624969 -2.810547 -1.160674 0.000000 0.000000 0.000000 0.000000 0.000000 0.000000 89.998703 -0.029824 -89.598984 -7.687253 14.323080 69.955467 127.545097 82.596039 -127.568802 0.000000 0.000000 0.000000 -89.998642 0.030104 -89.595253 -30.245190 -7.434882 72.274300 -134.300797 -81.800247 -134.262207 0.000000 0.000000 0.000000 -65.570473 86.371986 -37.520199 89.756393 25.914169 90.029091 -15.987120 -1.309073 -0.807555 179.826096 90.000000 0.000000 -118.294899 75.232986 -0.263532 -89.550667 -42.384651 90.128807 -2.177075 1.902144 -0.659570 199.008102 -90.000000 0.000000 
-0.161645 90.105270 -2.017238 3.450891 4.777323 -4.662817 -89.999992 -90.000000 0.000000 0.517596 -0.761758 -0.311810 1.710010 -2.549891 -1.012983 0.000000 0.000000 0.000000 0.000000 0.000000 0.000000 89.998268 -0.040968 -89.449158 -7.795661 15.885580 69.960907 112.638000 83.640228 -112.767303 0.000000 0.000000 0.000000 -89.998932 0.023140 -89.688873 -30.987789 -7.402921 72.377647 -137.866302 -81.255623 -137.788895 0.000000 0.000000 0.000000 -60.472881 86.724426 -42.276588 89.762047 25.375780 90.027199 -16.268030 -0.902576 -0.522848 179.955994 90.000000 0.000000 -112.676003 74.316490 -4.562266 -89.574074 -40.810291 90.114868 -3.105018 4.865690 -1.667473 198.908401 -90.000000 0.000000 
0.550613 90.138222 -1.808932 3.202399 4.493035 -4.335446 -89.999992 -90.000000 0.000000 0.520016 -0.678926 -0.274355 1.721405 -2.272557 -0.890783 0.000000 0.000000 0.000000 0.000000 0.000000 0.000000 89.997704 -0.056449 -89.241051 -7.626007 17.197651 70.198967 91.811096 84.133743 -92.056084 0.000000 0.000000 0.000000 -89.998810 0.026102 -89.649040 -31.743490 -7.665178 72.463768 -140.343094 -80.811279 -140.235504 0.000000 0.000000 0.000000 -48.852570 87.275177 -53.177670 89.769386 24.671709 90.024818 -16.531031 -0.226541 -0.052535 179.999603 90.000000 0.000000 -109.522499 73.536163 -5.670500 -89.604156 -38.677731 90.097816 -3.315784 6.294117 -2.195964 198.404297 -90.000000 0.000000 
